PathFileType  4	(X/Y/Z) C:\Users\antoi\Documents\MyRepositories\mobilecap\ResultsAnalysis
DataRate	CameraRate	NumFrames	NumMarkers	Units	OrigDataRate	OrigDataStartFrame	OrigNumFrames
100.0	100.0	4	51	mm	100.0	836	1336
Frame#	Time	r_knee			r_shank_antsup			r_ankle			r_calc			r_5meta			r_toe			L_knee			L_shank_antsup			L_ankle			L_calc			L_5meta			L_toe			r_sh2			r_sh3			r_sh4			L_sh2			L_sh3			r_thigh1			r_thigh2			r_thigh3			r_thigh4			r_thigh5			L_thigh1			L_thigh2			L_thigh3			L_thigh4			r.ASIS			r.PSIS			L.ASIS			L.PSIS			C7			R_Shoulder			L_Shoulder			R_Sternum			L_Sternum			R_humerus			R_elbow_med			R_elbow_lat			R_forearm			R_wrist_radius			R_wrist_ulna			L_humerus			L_elbow_med			L_elbow_lat			L_forearm			L_wrist_radius			L_wrist_ulna			R_HJC			L_HJC			R_HJC_reg			L_HJC_reg			
		X1	Y1	Z1	X2	Y2	Z2	X3	Y3	Z3	X4	Y4	Z4	X5	Y5	Z5	X6	Y6	Z6	X7	Y7	Z7	X8	Y8	Z8	X9	Y9	Z9	X10	Y10	Z10	X11	Y11	Z11	X12	Y12	Z12	X13	Y13	Z13	X14	Y14	Z14	X15	Y15	Z15	X16	Y16	Z16	X17	Y17	Z17	X18	Y18	Z18	X19	Y19	Z19	X20	Y20	Z20	X21	Y21	Z21	X22	Y22	Z22	X23	Y23	Z23	X24	Y24	Z24	X25	Y25	Z25	X26	Y26	Z26	X27	Y27	Z27	X28	Y28	Z28	X29	Y29	Z29	X30	Y30	Z30	X31	Y31	Z31	X32	Y32	Z32	X33	Y33	Z33	X34	Y34	Z34	X35	Y35	Z35	X36	Y36	Z36	X37	Y37	Z37	X38	Y38	Z38	X39	Y39	Z39	X40	Y40	Z40	X41	Y41	Z41	X42	Y42	Z42	X43	Y43	Z43	X44	Y44	Z44	X45	Y45	Z45	X46	Y46	Z46	X47	Y47	Z47	X48	Y48	Z48	X49	Y49	Z49	X50	Y50	Z50	X51	Y51	Z51	

836	8.35000000	-201.04296	493.61967	-436.36210	-177.88620	424.69703	-417.61878	-335.62938	106.54185	-439.44543	-394.41648	52.00327	-488.73952	-203.65612	45.13273	-381.87379	-162.96250	69.77562	-437.83418	-187.59041	481.40496	-796.91386	-175.25385	380.26299	-801.54354	-348.17802	100.85753	-768.41823	-417.55969	49.09296	-729.03853	-203.85604	41.05029	-817.98776	-175.52709	67.58606	-756.26801	-213.25706	316.86727	-412.85106	-248.60953	448.53587	-412.56235	-292.46430	339.97507	-410.01496	-255.11061	419.72977	-816.58036	-298.42983	307.34188	-810.23627	-489.40816	581.96638	-434.21570	-382.26664	591.12628	-439.90322	-352.36580	538.57800	-404.05982	-479.20096	468.43620	-424.50843	-361.95043	484.28884	-416.41840	-481.36502	571.52591	-811.43034	-340.30571	577.29164	-804.01891	-476.87662	454.79065	-818.81999	-339.25245	469.35473	-822.91428	-545.28599	609.05299	-499.21276	-732.95100	603.03185	-586.65884	-535.22996	597.73943	-758.87160	-729.32128	594.81645	-686.40906	-555.02199	1101.55450	-642.72275	-486.77051	1055.86699	-461.08843	-468.93914	1059.77434	-801.68426	-421.08109	1006.28159	-603.66754	-416.79069	1002.30417	-655.79902	-589.70084	822.82623	-340.75170	-652.35802	728.98325	-400.66955	-633.11562	744.78534	-314.42373	-510.47820	639.02910	-316.20089	-422.43395	566.22534	-337.71071	-457.21992	544.40101	-320.18346	-578.92456	834.88684	-911.38438	-671.53872	765.27836	-857.74281	-634.10618	765.14303	-931.11497	-528.33754	626.06596	-897.05211	-458.89387	571.86717	-869.44168	-486.26578	544.56688	-867.36098	-606.84064	513.79536	-504.62373	-595.71299	503.56807	-734.49379	-599.90437	522.57947	-531.04566	-593.68095	508.49813	-702.02239	
837	8.36000000	-200.91545	493.38844	-435.81887	-177.89473	424.60785	-417.13271	-335.84753	106.41735	-439.36047	-394.53730	51.89497	-488.66331	-203.74589	45.55446	-381.86665	-163.16318	70.20401	-437.73653	-187.17996	481.19259	-797.18106	-175.05995	380.04013	-802.03201	-348.27980	100.82252	-768.52431	-417.58515	48.95338	-729.20629	-203.92428	41.04942	-818.26458	-175.57251	67.67076	-756.45948	-213.34518	316.75634	-412.42330	-248.59664	448.35112	-412.20003	-292.51669	339.94826	-409.75135	-254.90465	419.43822	-816.75347	-298.34791	307.23300	-810.58940	-489.65976	582.50781	-433.62450	-382.26948	590.96612	-439.23181	-352.43658	538.22077	-403.72968	-479.24286	468.52993	-424.18446	-361.80672	483.89545	-416.14717	-481.06612	571.48835	-811.31854	-339.98984	577.12085	-804.13474	-476.71204	454.63939	-818.82291	-339.06598	469.24678	-823.10427	-543.14948	609.10790	-497.17806	-731.59939	604.46728	-586.75912	-533.54848	597.32889	-759.08518	-727.91221	596.18641	-686.59894	-547.44547	1100.99592	-641.76338	-478.63008	1055.00533	-460.70976	-460.50605	1058.41604	-800.92461	-414.19306	1003.88511	-603.20425	-409.95065	999.95376	-655.19030	-582.72599	823.94267	-338.44599	-647.25412	730.48374	-396.55834	-626.79126	746.66714	-310.67179	-504.87135	639.80771	-313.44049	-417.61491	565.98848	-335.46584	-452.43442	544.84143	-317.18656	-574.03831	836.17837	-911.91340	-668.31088	768.13972	-859.29879	-630.36299	767.53740	-932.35168	-526.59371	627.26194	-897.76674	-457.98970	572.23847	-869.58648	-485.64233	545.24378	-867.71889	-606.20127	514.27500	-504.10998	-594.70114	503.75530	-733.94877	-598.94635	522.32068	-529.39766	-592.57803	508.01821	-701.84014	
838	8.37000000	-200.55873	493.06646	-435.58157	-177.69753	424.34716	-416.66168	-336.11787	106.33155	-439.31712	-394.71265	51.72332	-488.57243	-203.95627	45.87733	-382.00855	-163.36101	70.80665	-437.71982	-186.56728	480.97144	-797.60334	-174.81045	380.00153	-802.74447	-348.33121	100.77334	-768.58656	-417.58439	48.89247	-729.15550	-204.00241	41.05334	-818.40783	-175.61358	67.78159	-756.65897	-213.32354	316.70968	-411.94134	-248.44669	448.16583	-411.58805	-292.50320	339.91007	-409.30394	-254.56609	419.18778	-817.00435	-298.22597	307.00776	-810.74652	-488.99225	581.95835	-432.85020	-382.03103	590.84781	-438.68701	-352.41189	537.85419	-403.49982	-479.11683	468.60413	-423.93447	-362.01367	483.38055	-416.72097	-480.66726	571.42648	-811.18634	-339.57452	576.89534	-804.20192	-476.44602	454.54541	-818.92649	-338.79412	469.13315	-823.36394	-541.55831	608.55275	-496.46174	-729.90372	606.05026	-586.99421	-531.49347	597.14867	-759.49716	-726.33596	597.66514	-686.61962	-539.57542	1100.39318	-640.87117	-470.03445	1054.13875	-460.30850	-451.37267	1057.54787	-800.12981	-407.07855	1001.76780	-602.60268	-402.83548	997.55745	-654.56051	-575.33429	825.11389	-335.94015	-641.70799	731.80720	-392.44946	-619.92985	748.55446	-307.09295	-498.96858	640.68736	-310.34884	-412.51174	565.83731	-333.08910	-447.28763	545.39959	-313.96917	-568.82889	837.44862	-912.32273	-664.79792	771.10243	-860.79480	-626.30857	770.08950	-933.49731	-524.62646	628.53991	-898.35123	-456.90471	572.49950	-869.57335	-484.95825	545.77765	-867.76154	-605.53498	514.37260	-504.20165	-593.77686	504.12353	-734.03922	-598.15773	522.46975	-528.77866	-591.95719	507.89369	-701.95203	
839	8.38000000	-200.13251	492.89637	-435.32955	-177.29656	423.98830	-416.07682	-336.44670	106.26047	-439.35998	-394.89693	51.48331	-488.53112	-204.24476	46.13301	-382.08883	-163.58719	71.47822	-437.78677	-185.92120	480.56557	-798.05317	-174.39837	379.94395	-803.55580	-348.34237	100.71787	-768.62762	-417.59859	48.85610	-729.06551	-204.07029	41.06049	-818.45372	-175.66879	67.88246	-756.83487	-213.35521	316.65007	-411.61832	-248.09978	448.07230	-410.69094	-292.38523	339.82266	-408.76013	-254.13043	418.94484	-817.26231	-298.01479	306.67316	-810.70445	-488.48456	581.86947	-432.39033	-381.38202	590.92421	-438.41517	-351.81739	537.99092	-402.70704	-478.80772	468.55865	-423.92821	-362.02556	483.01156	-417.10430	-480.12321	571.28707	-811.26742	-339.02271	576.57156	-804.29297	-476.07039	454.50239	-819.13020	-338.37918	468.84744	-823.58102	-539.91998	608.04815	-496.31482	-727.98827	607.76200	-587.25153	-528.97030	596.81434	-759.48875	-724.50095	599.32837	-686.52204	-531.19271	1099.55289	-640.43066	-460.78464	1053.13390	-460.27843	-441.73974	1057.02496	-799.38625	-399.75995	999.61036	-601.87628	-395.47493	995.18754	-653.94398	-567.56591	826.50986	-333.14014	-635.18001	732.96641	-388.47890	-612.54046	750.33732	-303.72363	-492.90302	641.71776	-306.98885	-407.02098	565.87958	-330.54518	-441.81020	545.94897	-310.72893	-563.30097	838.83309	-912.72851	-660.93382	774.24962	-862.25054	-621.91767	772.92538	-934.85325	-522.45741	629.81550	-898.92622	-455.62267	572.92917	-869.79448	-484.11805	546.49979	-868.18890	-604.77794	514.60398	-504.23039	-592.65561	504.43788	-734.05296	-597.13648	522.79116	-528.63786	-591.04931	508.07029	-701.91283	
